<svg id="Layer_1" data-name="Layer 1" xmlns="http://www.w3.org/2000/svg" viewBox="0 0 77.96 45.5"><defs><style>.cls-1{fill:#fff;}</style></defs><title>transparent-arrow-sprites</title><path class="cls-1" d="M80.94,25.22c-2.92-3-5.46-5.55-8-8.12s-5.32-5.35-8-8c-1.55-1.55-2.34-3.23-.46-5,1.7-1.63,3.32-1,4.82.42l.53.5c5.76,5.76,11.56,11.49,17.27,17.3,2.48,2.53,2.51,3.7.09,6.17C81.4,34.34,75.51,40.16,69.66,46c-1.61,1.6-3.39,2.67-5.33.62s-.53-3.76,1-5.3c4.12-4.13,8.26-8.25,12.36-12.4C78.71,27.91,79.59,26.78,80.94,25.22Z" transform="translate(-11.02 -2.25)"/><path class="cls-1" d="M19.06,24.78c2.92,3,5.46,5.55,8,8.12s5.32,5.35,8,8c1.55,1.55,2.34,3.23.46,5-1.7,1.63-3.32,1-4.82-.42l-.53-.5c-5.76-5.76-11.56-11.49-17.27-17.3-2.48-2.53-2.51-3.7-.09-6.17C18.6,15.66,24.49,9.84,30.34,4c1.61-1.6,3.39-2.67,5.33-.62s.53,3.76-1,5.3c-4.12,4.13-8.26,8.25-12.36,12.4C21.29,22.09,20.41,23.22,19.06,24.78Z" transform="translate(-11.02 -2.25)"/></svg>